<svg width="75" height="65" fill="none" xmlns="http://www.w3.org/2000/svg">
  <path d="m40.334 10.216.006.011v-.023l-.007.012ZM34.66.308l5.673 9.908-5.654 9.873-.019-.012-5.738-9.919L34.62.309h.04ZM57.546 10.216l.007.011v-.023l-.007.012ZM51.873.308l5.673 9.908-5.654 9.873-.02-.012-5.737-9.919 5.698-9.85h.04Z" fill="#B3B3B3"/>
  <path d="m51.893 20.089-.02.034H40.34v-.046l-5.68-9.919h11.475l5.738 9.92.02.01Z" fill="#4D4D4D"/>
  <path d="m51.833.309-5.698 9.85H34.66L40.34.24V.31h11.493Z" fill="gray"/>
  <path d="m74.76 10.216.006.011v-.023l-.007.012ZM69.086.308l5.673 9.908-5.654 9.873-.02-.012-5.737-9.919 5.698-9.85h.04Z" fill="#B3B3B3"/>
  <path d="m69.106 20.089-.02.034H57.553v-.046l-5.68-9.919h11.475l5.738 9.92.02.01Z" fill="#4D4D4D"/>
  <path d="m69.046.309-5.698 9.85H51.873L57.553.24V.31h11.493Z" fill="gray"/>
  <path d="m66.153 25.095.007.011v-.023l-.007.012ZM60.48 15.187l5.673 9.908-5.654 9.873-.02-.012-5.737-9.919 5.697-9.85h.04Z" fill="#B3B3B3"/>
  <path d="m60.499 34.968-.02.034H48.946v-.046l-5.68-9.919h11.476l5.737 9.92.02.01Z" fill="#4D4D4D"/>
  <path d="m60.439 15.187-5.697 9.85H43.266l5.68-9.919v.069H60.44Z" fill="gray"/>
  <path d="m57.546 39.974.007.011v-.023l-.007.012ZM51.873 30.066l5.673 9.908-5.654 9.873-.02-.012-5.737-9.919 5.698-9.85h.04Z" fill="#B3B3B3"/>
  <path d="m51.893 49.846-.02.035H40.34v-.046l-5.68-9.919h11.475l5.738 9.919.02.011Z" fill="#4D4D4D"/>
  <path d="m51.833 30.066-5.698 9.85H34.66l5.68-9.919v.069h11.493Z" fill="gray"/>
  <path d="m48.94 54.852.007.011v-.023l-.007.012Z" fill="#B3B3B3"/>
  <path d="m43.267 44.945 5.673 9.907-5.654 9.874-.02-.012-5.737-9.919 5.697-9.85h.04Z" fill="#B3B3B3"/>
  <path d="m43.286 64.725-.02.035H31.734v-.046l-5.68-9.919h11.475l5.737 9.919.02.011Z" fill="#4D4D4D"/>
  <path d="m43.226 44.945-5.697 9.85H26.053l5.68-9.919v.069h11.493Z" fill="gray"/>
  <path d="m40.334 39.974.006.011v-.023l-.007.012ZM34.66 30.066l5.673 9.908-5.654 9.873-.019-.012-5.738-9.919 5.698-9.85h.04Z" fill="#B3B3B3"/>
  <path d="m34.68 49.846-.02.035H23.127v-.046l-5.68-9.919h11.475l5.738 9.919.02.011Z" fill="#4D4D4D"/>
  <path d="m34.62 30.066-5.698 9.85H17.447l5.68-9.919v.069H34.62Z" fill="gray"/>
  <path d="m31.727 25.095.007.011v-.023l-.007.012ZM26.054 15.187l5.673 9.908-5.654 9.873-.02-.012-5.737-9.919 5.697-9.85h.04Z" fill="#B3B3B3"/>
  <path d="m26.073 34.968-.02.034H14.521v-.046l-5.68-9.919h11.475l5.737 9.92.02.01Z" fill="#4D4D4D"/>
  <path d="m26.013 15.187-5.697 9.85H8.84l5.68-9.919v.069h11.493Z" fill="gray"/>
  <path d="m23.12 10.216.007.011v-.023l-.007.012ZM17.447.308l5.673 9.908-5.654 9.873-.02-.012-5.737-9.919 5.698-9.85h.04Z" fill="#B3B3B3"/>
  <path d="m17.466 20.089-.02.034H5.915v-.046l-5.68-9.919h11.475l5.738 9.92.02.01Z" fill="#4D4D4D"/>
  <path d="m17.407.309-5.698 9.85H.234L5.914.24V.31h11.493Z" fill="gray"/>
  <path d="m34.68 20.089-.02.034H23.127v-.046l-5.68-9.919h11.475l5.738 9.92.02.01Z" fill="#4D4D4D"/>
  <path d="m34.62.309-5.698 9.85H17.447L23.127.24V.31H34.62Z" fill="gray"/>
</svg>
