<svg width="109" height="83" fill="none" xmlns="http://www.w3.org/2000/svg">
  <path d="m57.334 10.216.006.011v-.023l-.007.012ZM51.66.308l5.673 9.908-5.654 9.873-.019-.012-5.738-9.919L51.62.309h.04ZM74.546 10.216l.007.011v-.023l-.007.012ZM68.873.308l5.673 9.908-5.654 9.873-.02-.012-5.737-9.919 5.698-9.85h.04Z" fill="#B3B3B3"/>
  <path d="m68.893 20.089-.02.034H57.34v-.046l-5.68-9.919h11.475l5.738 9.92.02.01Z" fill="#4D4D4D"/>
  <path d="m68.833.309-5.698 9.85H51.66L57.34.24V.31h11.493Z" fill="gray"/>
  <path d="m91.76 10.216.006.011v-.023l-.007.012ZM86.086.308l5.673 9.908-5.654 9.873-.02-.012-5.737-9.919 5.698-9.85h.04Z" fill="#B3B3B3"/>
  <path d="m86.106 20.089-.02.034H74.553v-.046l-5.68-9.919h11.475l5.738 9.92.02.01Z" fill="#4D4D4D"/>
  <path d="m86.046.309-5.698 9.85H68.873L74.553.24V.31h11.493Z" fill="gray"/>
  <path d="m83.153 25.095.007.011v-.023l-.007.012ZM77.48 15.187l5.673 9.908-5.654 9.873-.02-.012-5.737-9.919 5.697-9.85h.04Z" fill="#B3B3B3"/>
  <path d="m77.499 34.968-.02.034H65.946v-.046l-5.68-9.919h11.476l5.737 9.92.02.01Z" fill="#4D4D4D"/>
  <path d="m77.439 15.187-5.697 9.85H60.266l5.68-9.919v.069H77.44Z" fill="gray"/>
  <path d="m74.546 39.974.007.011v-.023l-.007.012ZM68.873 30.066l5.673 9.908-5.654 9.873-.02-.012-5.737-9.919 5.698-9.85h.04Z" fill="#B3B3B3"/>
  <path d="m68.893 49.846-.02.035H57.34v-.046l-5.68-9.919h11.475l5.738 9.919.02.011Z" fill="#4D4D4D"/>
  <path d="m68.833 30.066-5.698 9.85H51.66l5.68-9.919v.069h11.493Z" fill="gray"/>
  <path d="m65.94 54.852.007.011v-.023l-.007.012ZM60.267 44.945l5.673 9.907-5.654 9.874-.02-.012-5.737-9.919 5.697-9.85h.04Z" fill="#B3B3B3"/>
  <path d="m60.286 64.725-.02.035H48.734v-.046l-5.68-9.919h11.474l5.738 9.919.02.011Z" fill="#4D4D4D"/>
  <path d="m60.226 44.945-5.697 9.85H43.053l5.68-9.919v.069h11.493Z" fill="gray"/>
  <path d="m57.334 39.974.006.011v-.023l-.007.012ZM51.66 30.066l5.673 9.908-5.654 9.873-.019-.012-5.738-9.919 5.698-9.85h.04Z" fill="#B3B3B3"/>
  <path d="m51.68 49.846-.02.035H40.127v-.046l-5.68-9.919h11.475l5.738 9.919.02.011Z" fill="#4D4D4D"/>
  <path d="m51.62 30.066-5.698 9.85H34.447l5.68-9.919v.069H51.62Z" fill="gray"/>
  <path d="m48.727 25.095.007.011v-.023l-.007.012Z" fill="#B3B3B3"/>
  <path d="m43.054 15.187 5.673 9.908-5.654 9.873-.02-.012-5.737-9.919 5.697-9.85h.04Z" fill="#B3B3B3"/>
  <path d="m43.073 34.968-.02.034H31.521v-.046l-5.68-9.919h11.475l5.737 9.92.02.01Z" fill="#4D4D4D"/>
  <path d="m43.013 15.187-5.697 9.85H25.84l5.68-9.919v.069h11.493Z" fill="gray"/>
  <path d="m40.12 10.216.007.011v-.023l-.007.012Z" fill="#B3B3B3"/>
  <path d="m34.447.308 5.673 9.908-5.654 9.873-.02-.012-5.737-9.919 5.698-9.85h.04Z" fill="#B3B3B3"/>
  <path d="m34.466 20.089-.02.034H22.915v-.046l-5.68-9.919h11.475l5.738 9.92.02.01Z" fill="#4D4D4D"/>
  <path d="m34.407.309-5.698 9.85H17.234L22.914.24V.31h11.493Z" fill="gray"/>
  <path d="m51.68 20.089-.02.034H40.127v-.046l-5.68-9.919h11.475l5.738 9.92.02.01Z" fill="#4D4D4D"/>
  <path d="m51.62.309-5.698 9.85H34.447L40.127.24V.31H51.62Z" fill="gray"/>
  <path d="M1.12 68.504c0-.203.07-.368.208-.496a.791.791 0 0 1 .56-.208H6.56c.704 0 1.328.15 1.872.448.544.288.965.699 1.264 1.232.299.523.448 1.125.448 1.808 0 .704-.15 1.323-.448 1.856a2.959 2.959 0 0 1-1.248 1.232c-.544.288-1.173.432-1.888.432H2.624v3.088c0 .405-.128.715-.384.928-.256.213-.63.32-1.12.32v-10.64Zm5.44 4.976c.64 0 1.147-.192 1.52-.576.373-.395.56-.933.56-1.616 0-.661-.192-1.184-.576-1.568-.373-.395-.875-.592-1.504-.592H2.624v4.352H6.56Zm8.329-1.392c-.598 0-1.093.181-1.488.544-.395.352-.592.784-.592 1.296v4.192c0 .352-.117.613-.352.784-.224.16-.57.24-1.04.24V72.04c0-.79.448-1.184 1.344-1.184v.976c-.17.181-.288.341-.352.48l.064.064c.682-1.013 1.536-1.52 2.56-1.52.384 0 .677.096.88.288a.866.866 0 0 1 .304.672.926.926 0 0 1-.144.512c-.299-.16-.694-.24-1.184-.24Zm5.005 7.056a4.2 4.2 0 0 1-1.776-.368c-.522-.245-.933-.576-1.232-.992a2.49 2.49 0 0 1-.432-1.424v-2.624c0-.533.144-1.019.432-1.456.299-.437.71-.784 1.232-1.04.523-.256 1.115-.384 1.776-.384.662 0 1.254.128 1.776.384.534.256.944.603 1.232 1.04.299.437.448.923.448 1.456v2.624c0 .523-.149.997-.448 1.424-.298.416-.709.747-1.232.992-.522.245-1.114.368-1.776.368Zm0-1.2c.64 0 1.147-.15 1.52-.448.384-.31.576-.71.576-1.2v-2.512c0-.512-.192-.928-.576-1.248-.373-.32-.88-.48-1.52-.48-.629 0-1.136.16-1.52.48-.384.32-.576.736-.576 1.248v2.512c0 .49.187.89.56 1.2.384.299.896.448 1.536.448Zm6.509-8.288c-.288 0-.534-.096-.736-.288a.95.95 0 0 1-.305-.72.9.9 0 0 1 .305-.704c.202-.192.447-.288.735-.288.3 0 .55.096.752.288a.9.9 0 0 1 .305.704.95.95 0 0 1-.305.72 1.051 1.051 0 0 1-.752.288Zm-1.76 12.688c-.46 0-.827-.107-1.105-.32-.277-.213-.416-.47-.416-.768 0-.224.086-.405.256-.544.128.117.294.213.497.288.213.075.431.112.655.112.406 0 .704-.107.896-.32.193-.213.289-.533.289-.96V71.88c0-.352.111-.608.335-.768.235-.17.587-.256 1.056-.256v9.024c0 .715-.218 1.301-.655 1.76-.438.47-1.04.704-1.809.704Zm7.865-3.2c-.65 0-1.232-.123-1.744-.368a3.014 3.014 0 0 1-1.2-1.04 2.722 2.722 0 0 1-.432-1.504v-2.368c0-.565.15-1.077.448-1.536.31-.459.72-.816 1.232-1.072a3.677 3.677 0 0 1 1.696-.4c.608 0 1.162.128 1.664.384a2.97 2.97 0 0 1 1.2 1.056c.298.448.448.955.448 1.52v1.024c0 .17-.064.315-.192.432a.662.662 0 0 1-.464.176h-4.672v.72c0 .544.17.981.512 1.312.352.33.853.496 1.504.496.65 0 1.146-.144 1.488-.432.341-.288.512-.677.512-1.168.32-.021.586.043.8.192a.686.686 0 0 1 .336.624c0 .341-.15.661-.448.96-.288.299-.672.539-1.152.72a4.31 4.31 0 0 1-1.536.272Zm2.016-4.784v-.544c0-.533-.187-.965-.56-1.296-.363-.341-.848-.512-1.456-.512s-1.099.17-1.472.512c-.363.33-.544.763-.544 1.296v.544h4.032Zm6.343 4.784c-.65 0-1.232-.117-1.744-.352a2.832 2.832 0 0 1-1.2-.992 2.612 2.612 0 0 1-.416-1.456v-2.592c0-.565.139-1.067.416-1.504a2.92 2.92 0 0 1 1.184-1.024c.501-.245 1.077-.368 1.728-.368.608 0 1.146.09 1.616.272.48.17.853.416 1.12.736.267.32.4.683.4 1.088a.803.803 0 0 1-.32.656c-.203.16-.47.23-.8.208 0-.512-.187-.928-.56-1.248-.363-.32-.837-.48-1.424-.48s-1.061.16-1.424.48c-.363.31-.544.715-.544 1.216v2.496c0 .48.187.875.56 1.184.373.299.853.448 1.44.448s1.061-.16 1.424-.48c.373-.32.56-.73.56-1.232.341-.021.613.048.816.208.213.15.32.363.32.64 0 .405-.133.768-.4 1.088-.267.32-.64.57-1.12.752-.48.17-1.024.256-1.632.256Zm7.765 0c-.757 0-1.322-.213-1.696-.64-.373-.437-.56-1.008-.56-1.712V72.12h-1.488c0-.363.08-.64.24-.832.16-.192.379-.288.656-.288h.608v-1.52c0-.352.112-.608.336-.768.235-.17.581-.256 1.04-.256V71h2.128c0 .747-.336 1.12-1.008 1.12h-1.104v4.624c0 .427.075.73.224.912.16.17.443.256.848.256a2.07 2.07 0 0 0 1.056-.288c.139.139.208.325.208.56 0 .256-.133.48-.4.672-.267.192-.63.288-1.088.288Zm11.765 0c-.896 0-1.697-.165-2.4-.496-.705-.341-1.254-.81-1.648-1.408-.384-.608-.576-1.296-.576-2.064v-3.584c0-.768.191-1.45.575-2.048.395-.597.94-1.061 1.633-1.392.693-.33 1.487-.496 2.383-.496.897 0 1.691.144 2.385.432.693.277 1.231.667 1.616 1.168.394.501.592 1.077.592 1.728 0 .32-.107.57-.32.752-.214.181-.496.272-.849.272-.074 0-.186-.01-.335-.032.02-.128.031-.33.031-.608 0-.459-.133-.87-.4-1.232-.256-.363-.623-.645-1.104-.848-.469-.203-1.008-.304-1.615-.304-.598 0-1.131.112-1.6.336-.47.213-.838.523-1.105.928a2.415 2.415 0 0 0-.383 1.344v3.584c0 .512.127.97.383 1.376.267.395.635.704 1.105.928.48.224 1.023.336 1.632.336.618 0 1.168-.101 1.648-.304.48-.203.853-.48 1.12-.832.266-.363.4-.779.4-1.248 0-.17-.011-.373-.032-.608.149-.021.255-.032.32-.032.351 0 .634.101.848.304.224.203.336.475.336.816 0 .63-.198 1.19-.593 1.68-.394.49-.944.875-1.648 1.152-.693.267-1.493.4-2.4.4Zm8.723 0c-.918 0-1.659-.245-2.224-.736-.555-.49-.832-1.136-.832-1.936 0-.81.293-1.461.88-1.952.586-.501 1.36-.752 2.32-.752 1.024 0 1.866.363 2.528 1.088l.064-.064a7.107 7.107 0 0 0-.4-.4v-.672c0-.544-.17-.965-.512-1.264-.342-.299-.827-.448-1.456-.448-1.12 0-1.92.443-2.4 1.328a1.346 1.346 0 0 1-.432-.336.767.767 0 0 1-.16-.448c0-.288.144-.56.432-.816.288-.267.666-.48 1.136-.64.48-.16.981-.24 1.504-.24 1.013 0 1.808.25 2.384.752.586.501.88 1.195.88 2.08v4.384c0 .373-.107.645-.32.816-.214.17-.55.256-1.008.256v-.752c.224-.235.346-.373.368-.416l-.064-.064c-.694.821-1.59 1.232-2.688 1.232Zm.24-1.104c.661 0 1.178-.139 1.552-.416.384-.277.576-.661.576-1.152 0-.49-.187-.88-.56-1.168-.374-.288-.886-.432-1.536-.432-.608 0-1.088.144-1.44.432-.342.277-.512.667-.512 1.168 0 .501.165.89.496 1.168.341.267.816.4 1.424.4Zm5.635-6c0-.79.448-1.184 1.344-1.184v1.024a2.92 2.92 0 0 0-.336.432l.064.064c.32-.448.736-.81 1.248-1.088a3.338 3.338 0 0 1 1.664-.432c.864 0 1.547.256 2.048.768.501.512.752 1.173.752 1.984v4.512c0 .352-.117.613-.352.784-.224.16-.57.24-1.04.24v-5.392c0-.512-.144-.917-.432-1.216-.288-.299-.725-.448-1.312-.448-.395 0-.768.085-1.12.256-.341.16-.619.384-.832.672a1.512 1.512 0 0 0-.304.912v4.192c0 .352-.117.613-.352.784-.224.16-.57.24-1.04.24V72.04Zm8.86-3.296c0-.725.469-1.088 1.407-1.088v3.904c-.16.139-.272.256-.336.352l.048.08a3.54 3.54 0 0 1 1.168-.816c.47-.213.928-.32 1.376-.32.95 0 1.707.25 2.272.752.566.501.848 1.173.848 2.016v2.736c0 .533-.133 1.013-.4 1.44a2.583 2.583 0 0 1-1.088.992c-.469.235-1.002.352-1.6.352-1.045 0-1.925-.459-2.64-1.376l-.048.064c.064.096.171.23.32.4 0 .31-.106.539-.32.688-.213.15-.549.224-1.008.224v-10.4Zm3.391 9.168c.651 0 1.147-.139 1.488-.416.352-.277.528-.677.528-1.2v-2.608c0-.501-.176-.89-.528-1.168-.352-.288-.842-.432-1.472-.432-.554 0-1.029.15-1.424.448-.394.299-.592.656-.592 1.072v2.768c0 .437.192.805.576 1.104.384.288.859.432 1.424.432Zm8.124 1.232c-.918 0-1.659-.245-2.224-.736-.555-.49-.832-1.136-.832-1.936 0-.81.293-1.461.88-1.952.586-.501 1.36-.752 2.32-.752 1.024 0 1.866.363 2.528 1.088l.064-.064a7.107 7.107 0 0 0-.4-.4v-.672c0-.544-.17-.965-.512-1.264-.342-.299-.827-.448-1.456-.448-1.12 0-1.92.443-2.4 1.328a1.346 1.346 0 0 1-.432-.336.767.767 0 0 1-.16-.448c0-.288.144-.56.432-.816.288-.267.666-.48 1.136-.64.48-.16.981-.24 1.504-.24 1.013 0 1.808.25 2.384.752.586.501.88 1.195.88 2.08v4.384c0 .373-.107.645-.32.816-.214.17-.55.256-1.008.256v-.752c.224-.235.346-.373.368-.416l-.064-.064c-.694.821-1.59 1.232-2.688 1.232Zm.24-1.104c.661 0 1.178-.139 1.552-.416.384-.277.576-.661.576-1.152 0-.49-.187-.88-.56-1.168-.374-.288-.886-.432-1.536-.432-.608 0-1.088.144-1.44.432-.342.277-.512.667-.512 1.168 0 .501.165.89.496 1.168.341.267.816.4 1.424.4Zm5.635-6c0-.79.448-1.184 1.344-1.184v1.024a2.92 2.92 0 0 0-.336.432l.064.064c.32-.448.736-.81 1.248-1.088a3.339 3.339 0 0 1 1.664-.432c.864 0 1.547.256 2.048.768.501.512.752 1.173.752 1.984v4.512c0 .352-.117.613-.352.784-.224.16-.571.24-1.04.24v-5.392c0-.512-.144-.917-.432-1.216-.288-.299-.725-.448-1.312-.448-.395 0-.768.085-1.12.256-.341.16-.619.384-.832.672a1.51 1.51 0 0 0-.304.912v4.192c0 .352-.117.613-.352.784-.224.16-.571.24-1.04.24V72.04Z" fill="#000"/>
</svg>
